<svg width="309" height="31" viewBox="0 0 309 31" fill="none" xmlns="http://www.w3.org/2000/svg">
<path fill-rule="evenodd" clip-rule="evenodd" d="M8.06761 23.3195H0L6.46056 0H23.0056L21.431 5.5328H12.9858L11.9072 9.50308H20.3524L18.9286 14.5971H10.4836L8.06761 23.3195Z" fill="#368727"/>
<path fill-rule="evenodd" clip-rule="evenodd" d="M31.9133 4.65787H23.932L25.237 0H33.2076L31.9133 4.65787ZM26.747 23.3195H18.7656L23.5005 6.28326H31.4819L26.747 23.3195Z" fill="#368727"/>
<path fill-rule="evenodd" clip-rule="evenodd" d="M41.4496 11.3458C40.7377 11.3458 40.0259 11.5665 39.6269 12.5658C39.0336 14.0032 38.5159 15.4097 38.5159 16.8164C38.5159 17.4737 38.9797 18.0357 39.7455 18.0357C40.371 18.0357 40.7701 17.8483 41.1153 17.6302L42.7223 12.034C42.4419 11.6281 41.9457 11.3458 41.4496 11.3458ZM47.4572 23.3195H39.6269L40.1877 21.412C38.6022 22.7564 36.9951 23.7249 34.4281 23.7249C31.8288 23.7249 30.1895 22.4742 30.1895 19.8175C30.1895 16.8799 31.3435 12.5029 33.0369 9.4402C34.2772 7.15873 36.4989 5.97091 39.1306 5.97091C41.3848 5.97091 43.0566 6.97084 43.7145 8.22089L45.9364 0H53.9178L47.4572 23.3195Z" fill="#368727"/>
<path fill-rule="evenodd" clip-rule="evenodd" d="M62.0042 10.1597C61.0119 10.1597 60.3324 10.8473 59.9009 12.5655H63.1798C63.2661 12.2218 63.3955 11.6907 63.3955 11.3769C63.3955 10.4399 62.8347 10.1597 62.0042 10.1597ZM69.9856 15.8791H58.9734C58.7577 16.7846 58.5419 17.4107 58.5419 18.129C58.5419 18.4728 58.596 19.3484 59.7177 19.3484C60.8286 19.3484 61.3246 18.9102 61.7884 17.2542H69.608C68.6157 22.0993 62.9318 23.7548 59.4372 23.7548C54.7024 23.7548 51.0244 23.0679 51.0244 18.4728C51.0244 15.9412 52.2863 11.7522 53.9581 9.53422C55.975 6.87632 59.4696 5.87769 62.6837 5.87769C67.6343 5.87769 70.8483 6.90836 70.8483 11.159C70.8483 12.1909 70.417 14.4724 69.9856 15.8791Z" fill="#368727"/>
<path fill-rule="evenodd" clip-rule="evenodd" d="M78.0021 23.3195H70.0208L76.4921 0H84.4735L78.0021 23.3195Z" fill="#368727"/>
<path fill-rule="evenodd" clip-rule="evenodd" d="M93.7148 4.65787H85.7335L87.0277 0H95.0091L93.7148 4.65787ZM88.5485 23.3195H80.5671L85.302 6.28326H93.2726L88.5485 23.3195Z" fill="#368727"/>
<path fill-rule="evenodd" clip-rule="evenodd" d="M108.06 6.28305L108.751 10.1276H102.646L100.856 16.5981C100.694 17.0984 100.575 17.7231 100.575 18.1291C100.575 18.8789 100.877 19.1303 101.966 19.1303H103.671L102.484 23.3193H95.3764C93.0251 23.3193 92.1299 22.1622 92.1299 20.4106C92.1299 19.6929 92.2162 18.9103 92.4643 18.0355L96.8001 2.5H104.781L103.724 6.28305H108.06Z" fill="#368727"/>
<path fill-rule="evenodd" clip-rule="evenodd" d="M118.835 6.28271L114.499 15.7229L114.629 6.28271H106.551L108.093 23.319C107.899 24.3163 107.575 24.8775 106.95 25.1558C106.281 25.461 104.749 25.406 104.21 25.3758L104.102 25.3811L102.84 30.0102L108.287 30.0155C111.501 30.0155 113.076 28.3815 115.362 24.7564L127 6.28271H118.835Z" fill="#368727"/>
<path fill-rule="evenodd" clip-rule="evenodd" d="M304.256 10.7902C302.465 10.7902 301.009 9.31715 301.009 7.4999C301.009 5.68286 302.465 4.20978 304.256 4.20978C306.066 4.20978 307.522 5.68286 307.522 7.4999C307.522 9.31715 306.066 10.7902 304.256 10.7902ZM304.256 3.5C302.091 3.5 300.301 5.29579 300.301 7.4999C300.301 9.70421 302.091 11.5 304.256 11.5C306.44 11.5 308.231 9.70421 308.231 7.4999C308.231 5.29579 306.44 3.5 304.256 3.5Z" fill="#368727"/>
<path fill-rule="evenodd" clip-rule="evenodd" d="M303.583 7.2248V6.06952H304.134C304.587 6.05987 305.098 6.08978 305.098 6.64174C305.098 7.19489 304.587 7.2248 304.134 7.2248H303.583ZM305.846 6.67166C305.846 5.87589 305.393 5.4292 304.409 5.4292H302.875V9.55445H303.583V7.86511H304.134L305.138 9.55445H305.925L304.862 7.80667C305.433 7.73859 305.846 7.38852 305.846 6.67166Z" fill="#368727"/>
<path d="M147 22.4999H149.58L149.49 4.8599H149.58L161.31 22.4999H164.55V1.2599H161.94L162.06 19.1099H161.97L150.15 1.2599H147V22.4999Z" fill="#368727"/>
<path d="M181.229 21.3899V18.9299C179.309 20.3999 177.659 20.9999 175.649 20.9999C172.379 20.9999 170.579 19.0199 170.279 15.8699H181.829C181.889 15.5699 181.919 15.1499 181.919 14.7599C181.919 11.0399 179.609 7.6499 174.959 7.6499C170.879 7.6499 167.759 10.6199 167.759 15.2399C167.759 20.0399 170.849 22.9499 175.589 22.9499C177.629 22.9499 179.309 22.5299 181.229 21.3899ZM174.989 9.6299C177.809 9.6299 179.369 11.5499 179.609 14.0999H170.279C170.549 11.7599 172.229 9.6299 174.989 9.6299Z" fill="#368727"/>
<path d="M192.125 22.4999V20.6099C191.705 20.7599 191.105 20.8799 190.625 20.8799C189.245 20.8799 188.345 20.2199 188.345 18.4499V10.1399H192.155V8.0999H188.345V4.1999H185.975V8.0999H183.245V10.1399H185.975V18.9299C185.975 21.3899 187.385 22.8599 189.995 22.8599C190.715 22.8599 191.525 22.6799 192.125 22.4999Z" fill="#368727"/>
<path d="M204.818 11.3099C206.678 10.7999 208.568 9.1799 208.568 6.6599C208.568 2.9999 205.568 1.2599 201.728 1.2599H194.888V22.4999H202.478C206.108 22.4999 209.498 20.7599 209.498 16.5899C209.498 13.4399 207.007 11.7299 204.818 11.3699V11.3099ZM201.518 3.4199C203.948 3.4199 206.108 4.3499 206.108 6.8699C206.108 9.2699 203.917 10.3799 201.667 10.3799H197.467V3.4199H201.518ZM202.268 12.5399C204.368 12.5399 206.858 13.7399 206.858 16.5599C206.858 19.1699 204.817 20.3399 202.057 20.3399H197.467V12.5399H202.268Z" fill="#368727"/>
<path d="M225.366 21.3899V18.9299C223.446 20.3999 221.796 20.9999 219.786 20.9999C216.516 20.9999 214.716 19.0199 214.416 15.8699H225.966C226.026 15.5699 226.056 15.1499 226.056 14.7599C226.056 11.0399 223.746 7.6499 219.096 7.6499C215.016 7.6499 211.896 10.6199 211.896 15.2399C211.896 20.0399 214.986 22.9499 219.726 22.9499C221.766 22.9499 223.446 22.5299 225.366 21.3899ZM219.126 9.6299C221.946 9.6299 223.506 11.5499 223.746 14.0999H214.416C214.686 11.7599 216.366 9.6299 219.126 9.6299Z" fill="#368727"/>
<path d="M231.943 9.6899C231.913 9.2099 231.823 8.5499 231.703 8.0999H229.333C229.513 9.0899 229.603 10.0199 229.603 11.1899V22.4999H232.033V11.9399C233.563 10.4099 234.823 9.6599 236.383 9.6599C238.723 9.6599 239.923 11.3699 239.923 13.3199V22.4999H242.353V13.1399C242.353 9.8999 240.373 7.6799 236.923 7.6799C234.913 7.6799 233.683 8.3099 231.973 9.6899H231.943Z" fill="#368727"/>
<path d="M258.795 21.3899V18.9299C256.875 20.3999 255.225 20.9999 253.215 20.9999C249.945 20.9999 248.145 19.0199 247.845 15.8699H259.395C259.455 15.5699 259.485 15.1499 259.485 14.7599C259.485 11.0399 257.175 7.6499 252.525 7.6499C248.445 7.6499 245.325 10.6199 245.325 15.2399C245.325 20.0399 248.415 22.9499 253.155 22.9499C255.195 22.9499 256.875 22.5299 258.795 21.3899ZM252.555 9.6299C255.375 9.6299 256.935 11.5499 257.175 14.0999H247.845C248.115 11.7599 249.795 9.6299 252.555 9.6299Z" fill="#368727"/>
<path d="M273.502 3.9599C274.282 3.9599 275.002 3.3299 275.002 2.4299C275.002 1.5599 274.312 0.899902 273.502 0.899902C272.662 0.899902 271.972 1.5599 271.972 2.4299C271.972 3.3299 272.662 3.9599 273.502 3.9599ZM272.272 22.4999H274.702V8.0999H266.002V5.8799C266.002 4.3199 266.662 2.9399 268.552 2.9399C269.002 2.9399 269.452 3.0299 269.932 3.2099V1.0799C269.362 0.959901 268.702 0.899902 268.222 0.899902C265.552 0.899902 263.572 2.3699 263.572 5.6399V8.0999H260.902V10.1399H263.572V22.4999H266.002V10.1399H272.272V22.4999Z" fill="#368727"/>
<path d="M285.879 22.4999V20.6099C285.459 20.7599 284.859 20.8799 284.379 20.8799C282.999 20.8799 282.099 20.2199 282.099 18.4499V10.1399H285.909V8.0999H282.099V4.1999H279.729V8.0999H276.999V10.1399H279.729V18.9299C279.729 21.3899 281.139 22.8599 283.749 22.8599C284.469 22.8599 285.279 22.6799 285.879 22.4999Z" fill="#368727"/>
<path d="M287.471 21.4199C288.911 22.3199 290.741 22.9199 292.661 22.9199C295.301 22.9199 298.031 21.4799 298.031 18.5399C298.031 16.0499 296.231 14.8799 293.501 14.1899C290.861 13.4999 290.111 12.9899 290.111 11.6399C290.111 10.1999 291.521 9.6299 292.871 9.6299C294.581 9.6299 295.961 10.3799 297.431 11.6099V8.9699C296.081 8.1299 294.671 7.6499 292.841 7.6499C290.471 7.6499 287.651 8.9399 287.651 11.8199C287.651 13.9799 289.151 15.3899 291.701 16.0199C294.461 16.7099 295.571 17.1299 295.571 18.7499C295.571 20.1899 294.311 20.9699 292.661 20.9699C290.801 20.9699 288.881 19.9199 287.471 18.6599V21.4199Z" fill="#368727"/>
</svg>
